PathFileType	4	(X/Y/Z)	Captury_Subj1_squat02.trc
DataRate	CameraRate	NumFrames	NumMarkers	Units	OrigDataRate	OrigDataStartFrame	OrigNumFrames
60.0	60.0	8	47	mm	59.99879837036133	1	284
Frame#	Time		LeftUpLeg_		RightUpLeg_		LeftLeg_		RightLeg_		LeftFoot_		RightFoot_		LeftToeBase_		RightToeBase_		Knee_Lateral_r		Knee_Lateral_l		Ankle_Lateral_r		Ankle_Lateral_l		LeftArm_		LeftForeArm_		LeftHand_		LeftHandEE		RightArm_		RightForeArm_		RightHand_		RightHandEE		Spine_		Spine1_		Spine2_		Spine3_		Spine4_		Spine5_		Spine_x		Spine_y		Spine_z		RASI		LASI		RIPS		LIPS		RTHI		LTHI		RTIB		LTIB		RTOE		LTOE		RHEE		LHEE		RHipAngles		LHipAngles		RKneeAngles		LKneeAngles		RAnkleAngles		LAnkleAngles
			X1	Y1	Z1	X2	Y2	Z2	X3	Y3	Z3	X4	Y4	Z4	X5	Y5	Z5	X6	Y6	Z6	X7	Y7	Z7	X8	Y8	Z8	X9	Y9	Z9	X10	Y10	Z10	X11	Y11	Z11	X12	Y12	Z12	X13	Y13	Z13	X14	Y14	Z14	X15	Y15	Z15	X16	Y16	Z16	X17	Y17	Z17	X18	Y18	Z18	X19	Y19	Z19	X20	Y20	Z20	X21	Y21	Z21	X22	Y22	Z22	X23	Y23	Z23	X24	Y24	Z24	X25	Y25	Z25	X26	Y26	Z26	X27	Y27	Z27	X28	Y28	Z28	X29	Y29	Z29	X30	Y30	Z30	X31	Y31	Z31	X32	Y32	Z32	X33	Y33	Z33	X34	Y34	Z34	X35	Y35	Z35	X36	Y36	Z36	X37	Y37	Z37	X38	Y38	Z38	X39	Y39	Z39	X40	Y40	Z40	X41	Y41	Z41	X42	Y42	Z42	X43	Y43	Z43	X44	Y44	Z44	X45	Y45	Z45	X46	Y46	Z46	X47	Y47	Z47

1	0.00000	-173.90466	843.33899	42.59873	-8.00862	845.62360	38.95963	-198.81419	445.62421	32.87463	16.01636	448.04807	23.19359	-226.08240	80.37448	67.63335	49.93939	83.19693	56.23865	-235.76001	34.25218	-50.16882	72.05771	32.18964	-57.81095	61.57883	448.29877	27.35081	-244.11446	445.96790	39.28186	93.68579	86.39583	78.69520	-268.79541	82.12920	92.14447	-225.87573	1378.40149	68.30368	-209.92032	1390.10107	-207.33975	-204.40834	1431.95044	-436.95453	-225.80313	1426.95032	-519.27502	41.07392	1350.82910	91.15435	43.85978	1382.09717	-183.40952	33.06644	1433.90015	-410.79614	67.03326	1437.16736	-488.86652	-91.90411	936.26190	55.20609	-93.86746	1036.90405	45.60524	-95.60610	1108.54443	66.48933	-99.11996	1188.46509	115.86716	-101.88404	1321.66919	142.63953	0.00000	0.00000	0.00000	-45.37207	936.90271	54.18536	-92.58811	982.76202	53.21729	-90.91180	938.26501	101.70003	45.72087	905.47675	-58.24826	-233.47136	901.63184	-52.12389	-53.67270	910.07635	83.47916	-128.12396	909.05109	85.11232	67.66978	659.92389	40.38597	-249.48117	657.74103	50.03073	69.21912	285.64471	27.39779	-251.30254	227.62981	39.75620	84.64857	4.71364	-122.64331	-240.30966	2.87843	-114.29124	39.66465	21.69244	104.27948	-213.10132	17.39387	113.03409	-4.06718	-0.28930	6.36947	-3.55997	1.34279	6.65473	-1.40668	2.35203	0.13805	-0.85594	1.45004	-0.01806	3.63307	5.57350	-3.63969	0.93018	-0.89683	-8.35202
2	0.01667	-173.90466	843.33899	42.59873	-8.00862	845.62360	38.95963	-198.81419	445.62421	32.87463	16.01636	448.04807	23.19359	-226.08240	80.37448	67.63335	49.93939	83.19693	56.23865	-235.76001	34.25218	-50.16882	72.05771	32.18964	-57.81095	61.57883	448.29877	27.35081	-244.11446	445.96790	39.28186	93.68579	86.39583	78.69520	-268.79541	82.12920	92.14447	-225.87573	1378.40149	68.30368	-209.92032	1390.10107	-207.33975	-204.40834	1431.95044	-436.95453	-225.80313	1426.95032	-519.27502	41.07392	1350.82910	91.15435	43.85978	1382.09717	-183.40952	33.06644	1433.90015	-410.79614	67.03326	1437.16736	-488.86652	-91.90411	936.26190	55.20609	-93.86746	1036.90405	45.60524	-95.60610	1108.54443	66.48933	-99.11996	1188.46509	115.86716	-101.88404	1321.66919	142.63953	0.00000	0.00000	0.00000	-45.37207	936.90271	54.18536	-92.58811	982.76202	53.21729	-90.91180	938.26501	101.70003	45.72087	905.47675	-58.24826	-233.47136	901.63184	-52.12389	-53.67270	910.07635	83.47916	-128.12396	909.05109	85.11232	67.66978	659.92389	40.38597	-249.48117	657.74103	50.03073	69.21912	285.64471	27.39779	-251.30254	227.62981	39.75620	84.64857	4.71364	-122.64331	-240.30966	2.87843	-114.29124	39.66465	21.69244	104.27948	-213.10132	17.39387	113.03409	-4.06718	-0.28930	6.36947	-3.55997	1.34279	6.65473	-1.40668	2.35203	0.13805	-0.85594	1.45004	-0.01806	3.63307	5.57350	-3.63969	0.93018	-0.89683	-8.35202
3	0.03333	-173.86533	844.67969	40.75281	-7.95451	846.44177	37.51799	-199.54716	446.95654	33.76806	16.27638	448.77435	24.65170	-224.89491	81.47778	67.55850	48.88675	83.68060	56.30859	-235.18170	34.75264	-49.95410	72.12487	32.44393	-57.41503	61.80350	449.06485	29.17738	-244.87096	447.43695	39.99767	92.48886	86.75201	79.06160	-267.74521	83.05134	91.84126	-225.96492	1378.31494	67.95154	-209.96033	1390.74048	-207.65723	-204.46904	1431.17163	-437.52649	-224.37285	1427.76001	-520.30090	40.69490	1351.32092	90.61595	43.97781	1382.32190	-183.97273	33.81192	1433.84106	-411.45273	66.11505	1438.00745	-490.18362	-91.61086	937.39825	53.21015	-93.28809	1037.72571	43.92207	-94.89570	1108.85571	65.30234	-98.20488	1187.83350	115.56195	-101.16280	1320.28772	144.18697	0.00000	0.00000	0.00000	-45.07468	937.89252	52.30282	-92.14693	983.89233	51.04251	-90.72759	939.57581	99.69844	46.19946	905.75842	-59.78316	-233.01761	902.79297	-54.33916	-53.53032	911.20374	81.67784	-127.98820	910.41296	83.12957	67.74648	660.77521	40.82225	-249.84769	659.29175	49.21578	68.96348	286.19397	28.49040	-250.81384	228.64868	39.87732	85.34418	4.91875	-122.10126	-240.11409	3.11685	-113.91927	38.95809	22.26800	104.53934	-212.18356	18.67448	113.28003	-3.91077	-0.09487	6.68072	-3.36088	1.28514	6.58067	-0.78500	2.10605	0.05699	-0.38302	0.93379	-0.09893	3.95823	5.53306	-2.85130	1.30762	-0.44318	-7.61552
4	0.05000	-173.65858	845.28741	39.17128	-7.73672	846.70807	36.36644	-199.75061	447.56793	33.64483	16.91169	449.01944	25.03824	-224.27473	82.08051	67.94604	48.00424	83.78641	56.61635	-235.59006	34.18285	-48.99862	72.54173	31.57173	-56.38725	62.40027	449.36230	29.93275	-245.09985	448.12231	39.67997	91.45343	86.84082	79.66229	-267.25726	83.71585	91.98988	-225.81429	1377.94617	67.56669	-210.05396	1391.10522	-208.02216	-204.91208	1430.90198	-438.01013	-222.34885	1427.79736	-521.35114	40.37400	1350.92310	90.51261	44.50169	1381.93408	-184.06351	34.44662	1434.05981	-411.41022	65.27950	1438.83337	-490.69421	-91.24745	937.84790	51.76785	-92.73862	1038.07837	42.78826	-94.31129	1108.96033	64.54409	-97.61294	1187.40698	115.40210	-100.78079	1319.45569	145.24161	0.00000	0.00000	0.00000	-44.70816	938.24640	50.98112	-91.68284	984.34119	49.56141	-90.48053	940.06128	98.25652	46.79103	905.83521	-60.84129	-232.44469	903.44434	-56.12091	-53.29464	911.59875	80.35553	-127.75749	910.96118	81.61429	68.08135	661.11548	40.91172	-249.88124	660.01715	48.04196	68.99271	286.24945	29.10609	-250.44843	229.13029	39.86387	86.48791	3.59867	-120.72781	-241.17822	1.96186	-112.61684	38.56747	22.79950	105.48186	-212.28880	19.62510	114.33521	-3.77839	0.07296	6.98738	-3.17334	1.23301	6.49023	-0.57172	1.83225	-0.00836	-0.28779	0.69796	-0.16425	4.44996	5.50468	-1.85120	1.73820	0.04999	-6.60890
5	0.06667	-173.29439	846.11829	38.23063	-7.37018	847.46405	35.52879	-199.55594	448.40051	33.43409	17.37660	449.74847	25.42973	-224.04520	82.95499	68.20364	47.73745	84.39612	56.33205	-236.56816	34.02388	-48.18877	72.80250	31.25755	-56.12374	62.86767	450.11850	30.29900	-244.92393	448.98828	39.32338	91.21278	87.49193	79.32310	-267.11343	84.73262	92.08344	-225.79819	1377.75867	67.31950	-210.09810	1391.56750	-208.24095	-205.27437	1430.54236	-438.37656	-220.83766	1427.73853	-522.09827	40.04154	1351.23682	90.39529	44.77838	1382.36951	-184.15723	35.24265	1434.48975	-411.52756	64.23769	1438.77136	-491.52982	-90.85159	938.66156	50.74615	-92.31290	1038.71680	41.97461	-93.87923	1109.30688	64.01247	-97.12683	1187.22083	115.34583	-100.47732	1318.83362	146.18756	0.00000	0.00000	0.00000	-44.31165	939.03900	49.98831	-91.26567	985.15179	48.47253	-90.11313	940.94153	97.23206	47.24435	906.42786	-61.72937	-231.99530	904.16309	-57.18233	-52.92811	912.43738	79.39558	-127.39202	911.83344	80.60813	68.49899	661.90637	40.61350	-249.63220	660.90198	47.23686	69.12059	286.86282	29.15491	-250.18057	229.95020	39.80167	87.03207	2.90093	-120.23392	-242.92940	1.26406	-111.45823	39.28070	23.83979	105.90733	-213.05402	20.79177	115.22727	-3.68636	0.11000	6.92049	-3.13765	1.23489	6.34655	-0.30769	1.66782	-0.03639	-0.26459	0.64248	-0.19020	4.99329	5.49763	-0.82031	2.12881	0.43984	-5.50112
6	0.08333	-173.07845	846.51709	37.89331	-7.15105	847.69537	35.31127	-199.39276	448.79807	33.50832	17.36644	449.95563	25.61314	-223.18379	83.33838	68.61237	47.54830	84.58273	56.44775	-236.21733	33.45858	-47.32038	73.72484	30.65528	-55.37752	62.84085	450.29950	30.63749	-244.79440	449.40311	39.13048	90.94260	87.79720	79.57520	-266.39096	85.15412	92.23695	-225.64134	1377.47632	67.00317	-210.35851	1391.70984	-208.55920	-205.84932	1429.97021	-438.82108	-219.40100	1428.25464	-522.92108	39.78717	1351.17822	89.89252	44.98875	1382.55017	-184.62439	35.90305	1434.72375	-412.00098	63.22998	1439.35168	-492.56915	-90.54980	938.96307	50.56123	-91.92094	1038.93298	41.98602	-93.43374	1109.36121	64.19502	-96.56051	1187.00525	115.76216	-99.99281	1318.40344	147.04848	0.00000	0.00000	0.00000	-44.00896	939.29358	49.83699	-90.91459	985.45599	48.33432	-89.84222	941.19531	97.04993	47.59341	906.70135	-61.84821	-231.65161	904.71844	-57.50280	-52.67371	912.67108	79.21120	-127.13905	912.14227	80.36998	68.57730	662.09180	40.80272	-249.50566	661.32880	46.71484	69.06433	287.05765	29.43706	-249.51642	230.23207	39.86932	88.56210	1.94965	-119.19395	-242.95564	0.21178	-110.29609	39.92130	24.43015	106.64523	-213.25191	21.48074	116.27032	-3.58402	0.13167	7.07152	-2.99012	1.18809	6.05768	-0.23302	1.68599	-0.03847	-0.27610	0.49034	-0.18361	5.42786	5.50029	0.16365	2.48443	0.67508	-4.43265
7	0.10000	-173.24544	847.37146	37.41936	-7.32080	848.29321	34.57257	-199.33878	449.63553	33.26167	17.58315	450.56781	25.28104	-222.95547	84.20334	68.76664	47.20932	85.20569	56.77444	-236.86990	33.37729	-46.65160	74.06450	30.63256	-54.57566	63.05438	450.96024	30.33051	-244.74356	450.21899	38.86061	90.59256	88.46914	79.91576	-266.16388	86.14701	92.37874	-225.38188	1377.11523	67.56278	-210.70590	1391.68762	-208.01480	-206.59026	1429.78601	-438.31088	-218.40283	1427.77588	-522.66626	39.98750	1351.35046	89.47844	45.24432	1382.72998	-185.03651	36.17427	1435.02454	-412.38589	62.54214	1439.48169	-493.28259	-90.55489	939.69800	49.90069	-91.79469	1039.56958	41.45288	-93.16596	1109.83276	63.82210	-96.05492	1187.18103	115.65327	-99.34155	1318.33508	147.49234	0.00000	0.00000	0.00000	-44.01482	939.95654	49.10220	-90.85183	986.19006	47.64659	-89.76987	941.95685	96.38687	47.35942	907.15717	-62.70916	-231.88097	905.60596	-57.91819	-52.67366	913.36487	78.50607	-127.13776	912.95123	79.78365	68.58222	662.76782	40.28974	-249.57520	662.14655	46.31443	69.03918	287.60101	29.42170	-249.35675	231.05237	39.85901	89.26250	1.61555	-118.16599	-244.18275	-0.34296	-109.31069	40.43100	25.41065	107.51793	-213.88060	22.68002	117.02449	-3.57686	0.27710	7.19052	-2.97410	1.06744	5.94018	-0.29191	1.55258	-0.03528	-0.30433	0.49743	-0.16062	5.65483	5.50055	1.07966	2.86971	0.78188	-3.50679
8	0.11667	-173.59944	848.12500	37.76024	-7.68217	848.37817	34.39161	-199.44513	450.37613	33.30312	17.50299	450.67059	25.09630	-222.48587	84.90820	68.81856	47.10210	85.34216	57.00339	-237.40390	33.17860	-46.07167	74.23889	30.58338	-54.18714	62.98763	451.09891	30.02057	-244.83253	450.92438	39.04482	90.55080	88.63447	80.01747	-265.60919	86.93464	92.57879	-225.27766	1376.09192	68.10501	-211.03413	1391.47681	-207.45108	-207.58234	1429.43298	-437.78152	-217.65948	1427.69141	-522.36768	40.15849	1351.46252	89.04662	45.49249	1382.86853	-185.46381	36.47677	1435.35095	-412.77203	61.41440	1439.30420	-494.14706	-90.49876	940.11841	49.97503	-91.45895	1039.92053	41.55470	-92.65790	1110.09863	63.95246	-95.39930	1187.33325	115.83112	-98.77386	1318.38306	147.77043	0.00000	0.00000	0.00000	-43.96076	940.18939	49.03016	-90.61549	986.61121	47.71862	-89.55845	942.37671	96.45834	46.92852	907.01581	-63.06569	-232.29944	906.58984	-57.39649	-52.63413	913.63452	78.46296	-127.09492	913.52094	79.97475	68.37942	662.91235	39.93009	-249.77962	662.84143	46.71684	68.91903	287.69318	29.31435	-249.17123	231.73053	40.03650	89.56929	1.51306	-117.72128	-245.33348	-0.98172	-108.41656	41.34586	25.71469	108.06924	-213.88925	23.73563	117.60692	-3.60125	0.55451	7.20882	-2.99901	0.79645	5.94025	-0.36675	1.49801	-0.03844	-0.35158	0.47041	-0.13373	5.69024	5.49352	1.90184	3.31012	0.82906	-2.75536
